<?xml version="1.0" standalone="no"?>
<!DOCTYPE svg PUBLIC "-//W3C//DTD SVG 20010904//EN"
 "http://www.w3.org/TR/2001/REC-SVG-20010904/DTD/svg10.dtd">
<svg version="1.0" xmlns="http://www.w3.org/2000/svg"
 width="933.000000pt" height="933.000000pt" viewBox="0 0 933.000000 933.000000"
 preserveAspectRatio="xMidYMid meet">
<metadata>
Created by potrace 1.14, written by Peter Selinger 2001-2017
</metadata>
<g transform="translate(0.000000,933.000000) scale(0.100000,-0.100000)"
fill="#000000" stroke="none">
<path d="M4395 8900 c-142 -13 -226 -21 -243 -24 -9 -2 -39 -7 -67 -10 -27 -4
-66 -10 -85 -12 -54 -8 -228 -44 -295 -61 -33 -8 -67 -16 -76 -18 -81 -16
-433 -134 -526 -176 -23 -10 -44 -19 -47 -19 -16 0 -308 -143 -411 -200 -38
-22 -83 -47 -100 -56 -73 -41 -271 -174 -390 -264 -175 -132 -295 -236 -450
-393 -134 -136 -165 -169 -250 -272 -28 -33 -52 -62 -55 -65 -18 -16 -170
-227 -233 -322 -234 -355 -415 -744 -529 -1138 -57 -200 -115 -476 -133 -645
-4 -33 -9 -71 -11 -85 -26 -163 -25 -726 1 -920 2 -14 6 -50 10 -80 21 -173
67 -401 117 -580 16 -58 31 -112 33 -120 7 -29 103 -295 133 -365 101 -242
204 -439 348 -665 66 -106 223 -324 280 -390 12 -14 52 -61 89 -105 226 -268
623 -609 930 -799 50 -31 95 -60 102 -66 7 -5 15 -10 18 -10 3 0 24 -12 47
-26 149 -94 571 -280 803 -354 231 -73 538 -141 750 -166 33 -3 68 -8 77 -10
106 -19 631 -26 803 -11 145 13 249 25 275 32 8 2 35 7 60 10 39 4 307 58 350
70 8 2 49 13 90 24 296 79 659 226 905 365 39 22 79 44 90 50 67 35 261 162
368 240 145 106 198 148 322 256 70 61 339 333 390 395 28 33 58 69 69 80 31
34 210 276 263 355 249 374 456 839 567 1270 36 143 81 361 90 445 4 28 8 59
10 70 2 11 7 56 11 100 4 44 9 89 12 100 9 39 11 551 3 647 -17 201 -24 260
-36 322 -2 11 -7 41 -10 66 -5 36 -48 252 -69 342 -72 317 -240 731 -442 1088
-252 444 -666 917 -1068 1222 -12 10 -96 75 -110 86 -37 30 -305 202 -314 202
-6 0 -11 5 -11 10 0 6 -4 10 -10 10 -5 0 -33 14 -62 31 -295 175 -784 366
-1123 440 -115 25 -235 48 -280 54 -22 4 -65 10 -95 15 -30 5 -84 11 -120 15
-36 3 -78 8 -95 11 -52 8 -586 11 -670 4z m1965 -1947 c256 -72 454 -251 547
-493 47 -122 48 -135 48 -720 0 -305 -3 -576 -7 -601 -18 -122 -100 -295 -185
-389 l-52 -57 30 -29 c94 -89 178 -238 215 -378 23 -91 23 -93 20 -646 -1
-305 -5 -568 -9 -585 -78 -320 -280 -536 -587 -626 -73 -22 -91 -22 -625 -25
-584 -2 -620 0 -755 47 -34 12 -90 37 -124 56 -57 32 -157 108 -164 125 -7 16
-31 7 -59 -19 -116 -112 -266 -185 -428 -210 -27 -4 -297 -7 -600 -8 -545 0
-551 0 -625 23 -238 73 -423 231 -520 446 -26 56 -35 84 -57 171 -13 55 -16
1081 -3 1175 23 161 99 314 215 435 112 116 226 184 385 228 72 20 101 20 760
21 l685 1 1 661 c1 364 5 688 9 720 28 249 187 480 415 602 179 97 202 99 850
98 524 -1 548 -2 620 -23z"/>
<path d="M5173 6535 c-117 -32 -208 -117 -251 -237 -21 -56 -21 -72 -22 -728
l0 -671 672 3 673 3 65 31 c82 39 143 100 184 184 l31 65 3 521 c2 359 -1 531
-9 555 -6 18 -13 41 -16 49 -2 8 -3 15 -1 15 7 0 -67 99 -95 125 -18 17 -61
45 -97 63 l-65 32 -510 2 c-415 2 -520 -1 -562 -12z"/>
<path d="M3420 4460 c-311 -6 -324 -8 -404 -58 -59 -36 -104 -90 -139 -162
l-32 -65 1 -520 c0 -286 3 -536 8 -555 11 -51 55 -126 100 -172 43 -43 129
-91 186 -103 19 -4 261 -7 537 -6 482 1 504 2 557 22 78 29 158 105 199 188
l32 66 3 683 3 682 -33 1 c-247 3 -787 3 -1018 -1z"/>
<path d="M4904 3795 l1 -670 26 -55 c47 -101 138 -169 252 -191 28 -5 263 -9
532 -10 464 0 482 1 550 22 167 51 242 118 270 243 16 71 19 993 3 1056 -15
61 -80 158 -133 198 -24 18 -67 42 -97 53 -51 20 -76 21 -729 23 l-676 1 1
-670z"/>
</g>
</svg>
