<?xml version="1.0" encoding="utf-8"?>
<!-- Generator: Adobe Illustrator 24.3.0, SVG Export Plug-In . SVG Version: 6.00 Build 0)  -->
<svg version="1.1" id="Layer_1" xmlns="http://www.w3.org/2000/svg" xmlns:xlink="http://www.w3.org/1999/xlink" x="0px" y="0px"
	 viewBox="0 0 845 845" style="enable-background:new 0 0 845 845;" xml:space="preserve">
<style type="text/css">
	.st0{fill:#FFFFFF;}
	.st1{fill:url(#SVGID_1_);}
</style>
<circle class="st0" cx="428.9" cy="430.4" r="393.1"/>
<linearGradient id="SVGID_1_" gradientUnits="userSpaceOnUse" x1="721.2496" y1="124.7317" x2="123.7378" y2="722.2426" gradientTransform="matrix(1 0 0 -1 0 846)">
	<stop  offset="0" style="stop-color:#FF3366"/>
	<stop  offset="1" style="stop-color:#3399FD"/>
</linearGradient>
<path class="st1" d="M568.4,401l-125.5-0.1l0.1-127.6c0-20.5,16.8-37.3,37.4-37.3l88.4,0.2c9.9,0,19.2,3.9,26.3,10.9
	c7.1,7.1,10.9,16.5,10.9,26.5l-0.1,90.2C605.8,384.3,589,401,568.4,401z M400,444.7l-125.4,0.2c-20.6,0-37.3,16.5-37.3,36.9
	l0.1,90.1c-0.1,9.9,3.8,19.3,11.1,26.5c7,7,16.7,10.9,26.7,10.9l93.6-0.2c7.6-1.1,14.5-4.7,20.4-10.5c7-6.9,10.8-16.1,11-25.8
	c-0.2-0.9-0.2-1.9-0.2-2.8L400,444.7z M570.7,444.6l-127.4-0.1v127.1c0.6,19,15.9,32.3,37.3,32.3l90.7,0.1c5-1.1,20.7-5.2,26.5-10.9
	c6.9-6.9,9.9-14.4,9.9-24.6l0.3-87.6c0-9.8-3.8-18.8-11-26.1C590.2,448.2,581,444.6,570.7,444.6z M845,422.5
	C845,655.9,655.8,845,422.5,845C189.1,845,0,655.9,0,422.5C0,189.2,189.1,0,422.5,0C655.8,0,845,189.2,845,422.5z M651.1,482
	c0-21.6-8.4-41.9-23.5-57c-1.2-1.1-2.3-2.3-3.5-3.3c15.9-15.2,24.9-36.1,24.9-57.9l0.1-90.2c0.1-21.5-8.2-41.7-23.4-57
	c-15.1-15.2-35.3-23.6-56.9-23.6l-88.4,0.2c-44.4,0-80.5,35.9-80.5,80.1v128.1l-125.2-0.2c-44.4,0.1-80.5,36-80.5,80.3l-0.1,90
	c-0.1,21.3,8.2,41.5,23.4,56.8c15.2,15.2,35.4,23.5,56.8,23.5l88.4-0.4c21.9,0,42.1-8.2,57-23c0.6-0.7,1.3-1.2,1.8-1.7
	c0.3-0.2,0.6-0.5,0.9-0.7c15,15.6,35.9,24.5,57.8,24.5l90.3,0.1c21.5,0,41.7-8.4,56.9-23.6c15.2-15.1,23.5-35.3,23.5-56.8L651.1,482
	z"/>
</svg>
